Coordinates
version=1
nRows=19
nColumns=18
inDegrees=yes

Units are S.I. units (second, meters, Newtons, ...)
If the header above contains a line with 'inDegrees', this indicates whether rotational values are in degrees (yes) or radians (no).

endheader
time	ground_thorax_rot_x	ground_thorax_rot_y	ground_thorax_rot_z	ground_thorax_tx	ground_thorax_ty	ground_thorax_tz	clav_prot	clav_elev	scapula_abduction	scapula_elevation	scapula_upward_rot	scapula_winging	plane_elv	shoulder_elv	axial_rot	elbow_flexion	pro_sup
      0.00000000	      3.14268895	     -4.34669568	     -8.38497149	     -0.00556294	      0.00429147	      0.00246079	    -20.89175470	     -3.28533691	    -10.06507137	     -3.04655735	     12.59722532	      5.08731052	    -18.17015297	     16.59438032	     50.29268607	      0.00000000	     34.32000000
      0.01000000	      3.14337249	     -4.34638248	     -8.38453126	     -0.00554629	      0.00417031	      0.00248457	    -20.89172691	     -3.28578232	    -10.06485172	     -3.04689954	     12.59728914	      5.08744144	    -18.17004414	     16.59456567	     50.29253043	      0.00000000	     34.32000000
      0.02000000	      3.23652670	     -4.35441750	     -8.41170813	     -0.00549281	      0.00421581	      0.00250477	    -20.90928227	     -3.32646908	    -10.06964313	     -3.08609933	     12.62350497	      5.09338702	    -18.15140812	     16.72417953	     50.24877539	      0.00000000	     34.32000000
      0.03000000	      3.23607604	     -4.35501230	     -8.41236149	     -0.00554707	      0.00419362	      0.00252928	    -20.90946901	     -3.32611648	    -10.07004967	     -3.08584552	     12.62352695	      5.09330005	    -18.15155435	     16.72480858	     50.24860733	      0.00000000	     34.32000000
      0.04000000	      3.21269986	     -4.37280065	     -8.43092844	     -0.00550421	      0.00416191	      0.00257176	    -20.91657665	     -3.30862549	    -10.08378677	     -3.07436746	     12.62923996	      5.08758890	    -18.15667183	     16.74669816	     50.23950701	      0.00000000	     34.32000000
      0.05000000	      3.19037720	     -4.36796226	     -8.42319067	     -0.00554619	      0.00421989	      0.00261027	    -20.91893452	     -3.30103443	    -10.08054570	     -3.07302822	     12.64549435	      5.08145224	    -18.15409489	     16.75269150	     50.22884263	      0.00000000	     34.32000000
      0.06000000	      3.18930033	     -4.36725301	     -8.42286126	     -0.00553921	      0.00429323	      0.00266749	    -20.91887358	     -3.30079223	    -10.08011103	     -3.07301352	     12.64615776	      5.08120621	    -18.15385995	     16.75275277	     50.22863192	      0.00000000	     34.32000000
      0.07000000	      3.17888084	     -4.34300316	     -8.39337524	     -0.00566758	      0.00435343	      0.00258282	    -20.91122747	     -3.30665893	    -10.05841777	     -3.08022405	     12.65792872	      5.07907960	    -18.14205775	     16.72920767	     50.21640789	      0.00000000	     34.32000000
      0.08000000	      3.17957831	     -4.34388623	     -8.39375629	     -0.00570667	      0.00434098	      0.00250687	    -20.91114085	     -3.30659268	    -10.05871009	     -3.07996434	     12.65718253	      5.07924975	    -18.14222916	     16.72843785	     50.21612473	      0.00000000	     34.32000000
      0.09000000	      3.18957186	     -4.37729304	     -8.40744767	     -0.00567263	      0.00430678	      0.00254992	    -20.90683675	     -3.29832641	    -10.06927906	     -3.06605988	     12.62968378	      5.08372457	    -18.14875224	     16.69733662	     50.20012178	      0.00000000	     34.32000000
      0.10000000	      3.18989849	     -4.37802698	     -8.40746214	     -0.00571204	      0.00427468	      0.00250627	    -20.90687381	     -3.29837989	    -10.06946157	     -3.06600182	     12.62939471	      5.08386353	    -18.14879921	     16.69694457	     50.19990436	      0.00000000	     34.32000000
      0.11000000	      3.18995173	     -4.37827449	     -8.40726233	     -0.00571169	      0.00425895	      0.00251434	    -20.90683877	     -3.29845132	    -10.06943249	     -3.06603096	     12.62930630	      5.08390328	    -18.14875289	     16.69663397	     50.19970023	      0.00000000	     34.32000000
      0.12000000	      3.18938921	     -4.37775331	     -8.40675513	     -0.00566833	      0.00427339	      0.00257240	    -20.90674234	     -3.29847184	    -10.06903663	     -3.06614405	     12.62969116	      5.08379986	    -18.14854909	     16.69648152	     50.19951548	      0.00000000	     34.32000000
      0.13000000	      3.18802918	     -4.37656770	     -8.40606223	     -0.00560248	      0.00433567	      0.00264858	    -20.90660214	     -3.29831921	    -10.06831181	     -3.06626008	     12.63059317	      5.08350959	    -18.14818565	     16.69645293	     50.19934653	      0.00000000	     34.32000000
      0.14000000	      3.14638447	     -4.34612961	     -8.38161364	     -0.00568076	      0.00439478	      0.00256177	    -20.90085739	     -3.29219219	    -10.04366782	     -3.06875129	     12.65872243	      5.07395796	    -18.13614367	     16.67954098	     50.18879511	      0.00000000	     34.32000000
      0.15000000	      3.14541805	     -4.34601621	     -8.38194248	     -0.00565867	      0.00448904	      0.00255816	    -20.90073814	     -3.29158565	    -10.04354169	     -3.06831557	     12.65885760	      5.07374453	    -18.13609904	     16.67909289	     50.18854506	      0.00000000	     34.32000000
      0.16000000	      3.14518800	     -4.34657996	     -8.38221645	     -0.00570025	      0.00448014	      0.00252677	    -20.90071879	     -3.29124738	    -10.04368853	     -3.06801298	     12.65869964	      5.07369068	    -18.13617635	     16.67855572	     50.18827475	      0.00000000	     34.32000000
      0.17000000	      3.11573351	     -4.40302179	     -8.36891228	     -0.00572558	      0.00432686	      0.00260412	    -20.89203745	     -3.26473570	    -10.03604035	     -3.04696600	     12.65783599	      5.06583790	    -18.13669381	     16.58836436	     50.13736600	      0.00000000	     34.32000000
      0.18000000	      3.11658152	     -4.40323169	     -8.36860708	     -0.00575961	      0.00425120	      0.00258838	    -20.89193268	     -3.26510798	    -10.03585544	     -3.04720064	     12.65766844	      5.06597496	    -18.13670038	     16.58790048	     50.13713497	      0.00000000	     34.32000000
